HIERARCHY
ROOT hip
{
  OFFSET 0 0 0
  CHANNELS 6 Xposition Yposition Zposition Zrotation Yrotation Xrotation
  JOINT abdomen
  {
    OFFSET 0 20.6881 -0.73152
    CHANNELS 3 Zrotation Xrotation Yrotation
    JOINT chest
    {
      OFFSET 0 11.7043 -0.48768
      CHANNELS 3 Zrotation Xrotation Yrotation
      JOINT neck
      {
        OFFSET 0 22.1894 -2.19456
        CHANNELS 3 Zrotation Xrotation Yrotation
        JOINT head
        {
          OFFSET -0.24384 7.07133 1.2192
          CHANNELS 3 Zrotation Xrotation Yrotation
          JOINT leftEye
          {
            OFFSET 4.14528 8.04674 8.04672
            CHANNELS 3 Zrotation Xrotation Yrotation
            End Site
            {
              OFFSET 1 0 0
            }
          }
          JOINT rightEye
          {
            OFFSET -3.6576 8.04674 8.04672
            CHANNELS 3 Zrotation Xrotation Yrotation
            End Site
            {
              OFFSET 1 0 0
            }
          }
        }
      }
      JOINT rCollar
      {
        OFFSET -2.68224 19.2634 -4.8768
        CHANNELS 3 Zrotation Xrotation Yrotation
        JOINT rShldr
        {
          OFFSET -8.77824 -1.95073 1.46304
          CHANNELS 3 Zrotation Xrotation Yrotation
          JOINT rForeArm
          {
            OFFSET -28.1742 -1.7115 0.48768
            CHANNELS 3 Zrotation Xrotation Yrotation
            JOINT rHand
            {
              OFFSET -22.5879 0.773209 7.07136
              CHANNELS 3 Zrotation Xrotation Yrotation
              JOINT rThumb1
              {
                OFFSET -1.2192 -0.487915 3.41376
                CHANNELS 3 Zrotation Xrotation Yrotation
                JOINT rThumb2
                {
                  OFFSET -3.37035 -0.52449 3.41376
                  CHANNELS 3 Zrotation Xrotation Yrotation
                  End Site
                  {
                    OFFSET -1.78271 -1.18214 1.43049
                  }
                }
              }
              JOINT rIndex1
              {
                OFFSET -7.75947 0.938293 5.60832
                CHANNELS 3 Zrotation Xrotation Yrotation
                JOINT rIndex2
                {
                  OFFSET -2.54057 -0.884171 1.56538
                  CHANNELS 3 Zrotation Xrotation Yrotation
                  End Site
                  {
                    OFFSET -1.62519 -0.234802 1.16502
                  }
                }
              }
              JOINT rMid1
              {
                OFFSET -8.24714 1.18213 3.41376
                CHANNELS 3 Zrotation Xrotation Yrotation
                JOINT rMid2
                {
                  OFFSET -3.10165 -0.590103 1.0647
                  CHANNELS 3 Zrotation Xrotation Yrotation
                  End Site
                  {
                    OFFSET -2.48547 -0.328903 0.83742
                  }
                }
              }
              JOINT rRing1
              {
                OFFSET -8.82822 0.546677 1.51678
                CHANNELS 3 Zrotation Xrotation Yrotation
                JOINT rRing2
                {
                  OFFSET -2.60934 -0.819778 -0.0198488
                  CHANNELS 3 Zrotation Xrotation Yrotation
                  End Site
                  {
                    OFFSET -2.33842 -0.294052 0.168128
                  }
                }
              }
              JOINT rPinky1
              {
                OFFSET -8.27202 -0.0477905 -0.4584
                CHANNELS 3 Zrotation Xrotation Yrotation
                JOINT rPinky2
                {
                  OFFSET -1.82734 -0.647385 -0.700984
                  CHANNELS 3 Zrotation Xrotation Yrotation
                  End Site
                  {
                    OFFSET -1.69225 -0.51767 -0.607171
                  }
                }
              }
            }
          }
        }
      }
      JOINT lCollar
      {
        OFFSET 2.68224 19.2634 -4.8768
        CHANNELS 3 Zrotation Xrotation Yrotation
        JOINT lShldr
        {
          OFFSET 8.77824 -1.95073 1.46304
          CHANNELS 3 Zrotation Xrotation Yrotation
          JOINT lForeArm
          {
            OFFSET 28.1742 -1.7115 0.48768
            CHANNELS 3 Zrotation Xrotation Yrotation
            JOINT lHand
            {
              OFFSET 22.5879 0.773209 7.07136
              CHANNELS 3 Zrotation Xrotation Yrotation
              JOINT lThumb1
              {
                OFFSET 1.2192 -0.487915 3.41376
                CHANNELS 3 Zrotation Xrotation Yrotation
                JOINT lThumb2
                {
                  OFFSET 3.37035 -0.52449 3.41376
                  CHANNELS 3 Zrotation Xrotation Yrotation
                  End Site
                  {
                    OFFSET 1.78271 -1.18214 1.43049
                  }
                }
              }
              JOINT lIndex1
              {
                OFFSET 7.75947 0.938293 5.60832
                CHANNELS 3 Zrotation Xrotation Yrotation
                JOINT lIndex2
                {
                  OFFSET 2.54057 -0.884171 1.56538
                  CHANNELS 3 Zrotation Xrotation Yrotation
                  End Site
                  {
                    OFFSET 1.62519 -0.234802 1.16502
                  }
                }
              }
              JOINT lMid1
              {
                OFFSET 8.24714 1.18213 3.41376
                CHANNELS 3 Zrotation Xrotation Yrotation
                JOINT lMid2
                {
                  OFFSET 3.10165 -0.590103 1.0647
                  CHANNELS 3 Zrotation Xrotation Yrotation
                  End Site
                  {
                    OFFSET 2.48547 -0.328903 0.83742
                  }
                }
              }
              JOINT lRing1
              {
                OFFSET 8.82822 0.546677 1.51678
                CHANNELS 3 Zrotation Xrotation Yrotation
                JOINT lRing2
                {
                  OFFSET 2.60934 -0.819778 -0.0198488
                  CHANNELS 3 Zrotation Xrotation Yrotation
                  End Site
                  {
                    OFFSET 2.33842 -0.294052 0.168128
                  }
                }
              }
              JOINT lPinky1
              {
                OFFSET 8.27202 -0.0477905 -0.4584
                CHANNELS 3 Zrotation Xrotation Yrotation
                JOINT lPinky2
                {
                  OFFSET 1.82734 -0.647385 -0.700984
                  CHANNELS 3 Zrotation Xrotation Yrotation
                  End Site
                  {
                    OFFSET 1.69225 -0.51767 -0.607171
                  }
                }
              }
            }
          }
        }
      }
    }
  }
  JOINT rButtock
  {
    OFFSET -8.77824 4.35084 1.2192
    CHANNELS 3 Zrotation Xrotation Yrotation
    JOINT rThigh
    {
      OFFSET 0 -1.70687 -2.19456
      CHANNELS 3 Zrotation Xrotation Yrotation
      JOINT rShin
      {
        OFFSET 0 -36.8199 0.73152
        CHANNELS 3 Zrotation Xrotation Yrotation
        JOINT rFoot
        {
          OFFSET 0.73152 -45.1104 -5.12064
          CHANNELS 3 Zrotation Xrotation Yrotation
          End Site
          {
            OFFSET -1.1221 -3.69964 12.103
          }
        }
      }
    }
  }
  JOINT lButtock
  {
    OFFSET 8.77824 4.35084 1.2192
    CHANNELS 3 Zrotation Xrotation Yrotation
    JOINT lThigh
    {
      OFFSET 0 -1.70687 -2.19456
      CHANNELS 3 Zrotation Xrotation Yrotation
      JOINT lShin
      {
        OFFSET 0 -36.8199 0.73152
        CHANNELS 3 Zrotation Xrotation Yrotation
        JOINT lFoot
        {
          OFFSET -0.73152 -45.1104 -5.12064
          CHANNELS 3 Zrotation Xrotation Yrotation
          End Site
          {
            OFFSET 1.1221 -3.69964 12.103
          }
        }
      }
    }
  }
}
MOTION
Frames:	4
Frame Time:	0.00833333
-3.61285 84.2564 36.4066 0.0 0.0 0.0 -1.24151 -0.00398119 -0.0340788 -0.342494 -0.00249265 -0.0593272 -2.58226e-14 -1.59028e-15 4.96962e-17 -7.75012e-14 3.18055e-15 1.95679e-16 -0.0 0.0 0.0 -0.0 0.0 0.0 -1.29226e-14 2.87306e-17 1.98785e-16 -2.70462e-13 3.16813e-16 7.95139e-16 -4.68113e-12 1.41972e-12 6.99722e-14 -5.36538e-11 -1.31998e-12 1.90833e-14 -1.26547e-10 2.20849e-13 2.35361e-13 -2.18545e-10 3.84847e-13 4.01545e-13 -1.2654e-10 2.22639e-13 2.25819e-13 7.73091 5.47488 0.417314 -1.26546e-10 2.21446e-13 2.29e-13 2.90554 0.965183 0.102902 -1.26543e-10 2.21148e-13 2.29e-13 10.2786 0.731801 0.0259123 -1.26549e-10 2.21844e-13 2.3218e-13 2.22167 -0.733487 -0.20892 -1.29203e-14 2.83423e-17 -9.93923e-17 -2.75558e-13 6.4605e-16 -7.95139e-16 -4.69639e-12 -1.37976e-12 2.8625e-14 -5.364e-11 1.50405e-12 6.99722e-14 -1.26542e-10 2.68507e-13 2.22639e-13 -2.18528e-10 4.64361e-13 4.04726e-13 -1.26548e-10 2.69154e-13 2.3218e-13 -7.73091 5.47488 -0.417314 -1.26542e-10 2.68657e-13 2.29e-13 -2.90554 0.965183 -0.102902 -1.26556e-10 2.69154e-13 2.32976e-13 -10.2786 0.731801 -0.0259123 -1.26539e-10 2.6995e-13 2.29e-13 -2.22167 -0.733487 0.20892 -2.03217e-16 0.0 -3.88251e-19 -0.453836 -1.92099 -0.00952718 -0.00915563 -2.07857 -0.0755524 -0.487457 3.99699 0.136653 2.03217e-16 0.0 3.88251e-19 -1.43728 -5.97115 0.129662 -0.00126422 5.25795 -0.0454136 0.507822 0.710745 -0.0722749
-5.76023 83.7342 35.4837 -4.6927 -1.1535 1.9432 -0.0256178 -0.112229 0.181227 -0.276661 -1.06192 0.0103281 -0.157041 1.34188 -0.165806 1.50755 -0.128525 -0.29057 -0.0 0.0 0.0 -0.0 0.0 0.0 5.67662e-14 3.36052e-15 -1.04859e-14 22.3144 9.93245 -3.74595 -6.61443 -3.70902 9.45303 0.0393532 4.40277 0.612188 -4.79213e-10 8.09654e-10 -4.72245e-10 -8.33939e-10 1.39935e-09 -8.10875e-10 -4.79208e-10 8.09658e-10 -4.72254e-10 7.73091 5.47488 0.417314 -4.79213e-10 8.09657e-10 -4.72249e-10 2.90554 0.965183 0.102902 -4.79209e-10 8.09657e-10 -4.7225e-10 10.2786 0.731801 0.0259123 -4.79215e-10 8.09657e-10 -4.72246e-10 2.22167 -0.733487 -0.20892 5.67839e-14 3.359e-15 -1.07852e-14 -23.1641 7.61339 2.30829 5.47859 -2.80475 -8.18672 -0.0186591 3.03092 -0.423818 -5.10208e-10 -7.04298e-10 -4.3665e-10 -8.85107e-10 -1.21816e-09 -7.50554e-10 -5.10214e-10 -7.04294e-10 -4.3664e-10 -7.73091 5.47488 -0.417314 -5.10207e-10 -7.04297e-10 -4.36643e-10 -2.90554 0.965183 -0.102902 -5.1022e-10 -7.04297e-10 -4.36642e-10 -10.2786 0.731801 -0.0259123 -5.10206e-10 -7.04296e-10 -4.36645e-10 -2.22167 -0.733487 0.20892 -2.03217e-16 0.0 -3.88251e-19 -6.26126 -2.20849 -0.00997252 -0.00619139 -1.6632 -0.0543171 -0.195292 3.8674 0.0920393 2.03217e-16 0.0 3.88251e-19 2.22114 -7.20402 -1.59011 -0.0165834 10.177 -0.180544 0.648033 -4.58994 3.5587
-5.75897 83.7346 35.4853 -4.6867 -1.1578 1.9385 1.26014 -0.228318 0.408832 -0.201564 -2.17907 0.0841092 -0.314979 2.75974 -0.341314 3.09894 -0.265292 -0.597417 -0.0 0.0 0.0 -0.0 0.0 0.0 1.37247e-13 7.39388e-15 -2.25869e-14 47.3928 20.2888 -8.09144 -12.291 -7.29145 19.5678 -0.0225161 9.0554 1.27148 -8.89457e-10 1.74582e-09 -1.01992e-09 -1.54976e-09 3.01737e-09 -1.75131e-09 -8.89454e-10 1.74582e-09 -1.01993e-09 7.73091 5.47488 0.417314 -8.89459e-10 1.74582e-09 -1.01992e-09 2.90554 0.965183 0.102902 -8.89452e-10 1.74582e-09 -1.01993e-09 10.2786 0.731801 0.0259123 -8.89458e-10 1.74582e-09 -1.01992e-09 2.22167 -0.733487 -0.20892 1.37283e-13 7.39114e-15 -2.28882e-14 -48.3443 15.6184 4.88715 10.4078 -5.57886 -16.9034 0.0106475 6.23796 -0.876301 -9.60513e-10 -1.52002e-09 -9.39753e-10 -1.66737e-09 -2.62899e-09 -1.6153e-09 -9.60519e-10 -1.52001e-09 -9.39742e-10 -7.73091 5.47488 -0.417314 -9.60511e-10 -1.52002e-09 -9.39744e-10 -2.90554 0.965183 -0.102902 -9.60523e-10 -1.52002e-09 -9.39747e-10 -10.2786 0.731801 -0.0259123 -9.60512e-10 -1.52002e-09 -9.39749e-10 -2.22167 -0.733487 0.20892 -2.03217e-16 0.0 -3.88251e-19 -12.4005 -2.51245 -0.0104438 -0.00339254 -1.224 -0.0318812 0.11337 3.73032 0.044887 2.03217e-16 0.0 3.88251e-19 6.00791 -8.49915 -3.41839 -0.00664489 15.3774 -0.329545 1.53454 -10.1251 7.48984
-5.7555 83.735 35.487 -4.6779 -1.1426 1.9331 2.40861 -0.328707 0.611847 -0.137261 -3.18075 0.149864 -0.447774 4.02549 -0.49851 4.51875 -0.385536 -0.871728 -0.0 0.0 0.0 -0.0 0.0 0.0 1.96144e-13 1.00241e-14 -3.18552e-14 71.292 29.2498 -12.712 -16.293 -9.9171 28.7681 -0.170663 13.2022 1.88087 -1.18454e-09 2.42852e-09 -1.41721e-09 -2.06473e-09 4.19728e-09 -2.43343e-09 -1.18454e-09 2.42853e-09 -1.41721e-09 7.73091 5.47488 0.417314 -1.18455e-09 2.42853e-09 -1.4172e-09 2.90554 0.965183 0.102902 -1.18454e-09 2.42853e-09 -1.41721e-09 10.2786 0.731801 0.0259123 -1.18455e-09 2.42853e-09 -1.4172e-09 2.22167 -0.733487 -0.20892 1.96192e-13 1.00203e-14 -3.21569e-14 -71.4586 22.6855 7.44246 14.0949 -7.72854 -24.7705 0.0799863 9.09076 -1.28583 -1.27754e-09 -2.11343e-09 -1.3104e-09 -2.21827e-09 -3.6554e-09 -2.25247e-09 -1.27755e-09 -2.11342e-09 -1.31038e-09 -7.73091 5.47488 -0.417314 -1.27754e-09 -2.11343e-09 -1.31039e-09 -2.90554 0.965183 -0.102902 -1.27755e-09 -2.11343e-09 -1.31039e-09 -10.2786 0.731801 -0.0259123 -1.27754e-09 -2.11343e-09 -1.31039e-09 -2.22167 -0.733487 0.20892 -2.03217e-16 0.0 -3.88251e-19 -17.8761 -2.78351 -0.0108645 -0.00118652 -0.832456 -0.0118785 0.388429 3.6082 0.00285281 2.03217e-16 0.0 3.88251e-19 9.31337 -9.64093 -5.06226 0.0266498 20.0148 -0.471121 2.98918 -14.9426 11.1686
